<?xml version="1.0" encoding="UTF-8" standalone="no"?>
<!DOCTYPE svg PUBLIC "-//W3C//DTD SVG 1.1//EN" "http://www.w3.org/Graphics/SVG/1.1/DTD/svg11.dtd">
<svg version="1.1" xmlns="http://www.w3.org/2000/svg" xmlns:xlink="http://www.w3.org/1999/xlink" preserveAspectRatio="xMidYMid meet" viewBox="0 0 640 640" width="640" height="640"><defs><path d="M274.98 483.23C282.95 470.47 262.29 443.16 228.87 422.28C195.45 401.39 161.85 394.8 153.88 407.55C145.91 420.31 166.57 447.62 199.99 468.5C233.4 489.39 267.01 495.98 274.98 483.23Z" id="aeEQj2nv2"></path><path d="M337.88 475.12C325.85 494.37 269.89 481.12 212.98 445.56C156.07 410 119.64 365.51 131.66 346.26C143.69 327.01 199.66 340.25 256.56 375.81C313.47 411.37 349.91 455.87 337.88 475.12Z" id="bRm5BGni2"></path><path d="M442.14 192.86C431.22 210.33 400.33 210.74 373.19 193.78C346.05 176.82 332.87 148.87 343.79 131.4C354.7 113.94 385.6 113.53 412.74 130.49C439.88 147.44 453.05 175.39 442.14 192.86Z" id="b2NHhWfNKc"></path><path d="M341.7 134.43L440.05 195.88L290.66 434.96L192.31 373.5L341.7 134.43Z" id="c1UNslgX4F"></path><path d="M353.4 134.43L430.19 182.4L286.6 412.2L209.81 364.22L353.4 134.43Z" id="d30v8l6fbd"></path><path d="M285.89 412C291.89 415.75 293.72 423.65 289.97 429.65C288.08 432.67 289.2 430.89 287.31 433.91C283.56 439.91 275.65 441.74 269.65 437.99C252.16 427.05 210.53 401.04 193.03 390.11C187.03 386.36 185.21 378.45 188.96 372.45C190.85 369.43 189.73 371.22 191.62 368.19C195.37 362.19 203.27 360.37 209.27 364.12C226.77 375.05 268.4 401.06 285.89 412Z" id="accEj9sKI"></path><path d="M378.96 182.75C380.47 183.69 380.93 185.68 379.98 187.19C379.64 187.74 380.32 186.65 379.98 187.19C379.04 188.7 377.05 189.16 375.54 188.22C366.24 182.41 341.07 166.68 331.77 160.87C330.26 159.93 329.8 157.94 330.74 156.42C331.08 155.88 330.4 156.97 330.74 156.42C331.69 154.91 333.68 154.45 335.19 155.4C344.49 161.21 369.66 176.94 378.96 182.75Z" id="k2QaL6wWwY"></path><path d="M353.84 216.55C355.36 217.5 355.82 219.49 354.87 221C354.53 221.54 355.21 220.45 354.87 221C353.93 222.51 351.94 222.97 350.43 222.02C341.12 216.21 315.96 200.48 306.66 194.67C305.15 193.73 304.69 191.74 305.63 190.23C305.97 189.68 305.29 190.77 305.63 190.23C306.57 188.72 308.56 188.26 310.07 189.2C319.38 195.01 344.54 210.74 353.84 216.55Z" id="dRmCq9Qth"></path><path d="M333.52 250.36C335.03 251.3 335.49 253.29 334.55 254.8C334.21 255.35 334.89 254.25 334.55 254.8C333.6 256.31 331.61 256.77 330.1 255.83C320.8 250.01 295.63 234.29 286.33 228.48C284.82 227.53 284.36 225.54 285.31 224.03C285.65 223.48 284.97 224.58 285.31 224.03C286.25 222.52 288.24 222.06 289.75 223C299.05 228.82 324.22 244.54 333.52 250.36Z" id="hKhvp3G23"></path><path d="M222.89 464.09C229.63 468.3 231.68 477.18 227.46 483.92C215.22 503.51 186.1 550.11 173.85 569.71C169.64 576.45 160.77 578.5 154.03 574.29C144.56 568.37 128.34 558.24 118.87 552.32C112.13 548.11 110.08 539.23 114.29 532.49C126.54 512.89 155.66 466.3 167.91 446.7C172.12 439.96 180.99 437.91 187.73 442.12C197.2 448.04 213.42 458.17 222.89 464.09Z" id="d2B6aMAkao"></path><path d="M181.07 580.91C186.38 572.41 171.92 553.77 148.78 539.31C125.65 524.86 102.55 520.03 97.24 528.53C91.93 537.03 106.4 555.67 129.53 570.12C152.66 584.58 175.76 589.41 181.07 580.91Z" id="j203WDjqyk"></path><path d="M191.24 606.11C197.4 596.24 176.31 571.93 144.17 551.84C112.03 531.76 80.93 523.46 74.77 533.33C68.6 543.19 89.69 567.51 121.83 587.59C153.97 607.67 185.07 615.97 191.24 606.11Z" id="c3YY1Y6z4f"></path><path d="M314.66 284.25C316.17 285.2 316.63 287.19 315.69 288.7C315.34 289.24 316.03 288.15 315.69 288.7C314.74 290.21 312.75 290.67 311.24 289.72C301.94 283.91 276.77 268.19 267.47 262.37C265.96 261.43 265.5 259.44 266.44 257.93C266.79 257.38 266.1 258.48 266.44 257.93C267.39 256.42 269.38 255.96 270.89 256.9C280.19 262.71 305.36 278.44 314.66 284.25Z" id="b1VlDfHDxd"></path><path d="M435.12 130.68C440.03 133.75 441.52 140.22 438.45 145.13C437.34 146.91 439.56 143.35 438.45 145.13C435.38 150.04 428.91 151.53 424 148.46C416.18 143.57 401.6 134.46 393.77 129.57C388.86 126.5 387.37 120.04 390.44 115.13C391.55 113.35 389.32 116.9 390.44 115.13C393.5 110.22 399.97 108.72 404.88 111.79C412.71 116.68 427.29 125.79 435.12 130.68Z" id="b6zFVDqV8J"></path><path d="M468.39 41.04C471.24 42.81 472.11 46.56 470.33 49.41C460.75 64.73 435.25 105.55 425.68 120.87C423.9 123.72 420.15 124.58 417.3 122.8C416.27 122.16 418.33 123.45 417.3 122.8C414.45 121.02 413.59 117.27 415.37 114.42C424.94 99.1 450.44 58.29 460.02 42.97C461.8 40.12 465.55 39.26 468.39 41.04C469.43 41.68 467.36 40.39 468.39 41.04Z" id="g7UP4uRi5"></path></defs><g><g><g><use xlink:href="#aeEQj2nv2" opacity="1" fill="#cecece" fill-opacity="1"></use></g><g><use xlink:href="#bRm5BGni2" opacity="1" fill="#e4e4e4" fill-opacity="1"></use></g><g><use xlink:href="#b2NHhWfNKc" opacity="1" fill="#cbcbcb" fill-opacity="1"></use></g><g><use xlink:href="#c1UNslgX4F" opacity="1" fill="#cbcbcb" fill-opacity="1"></use></g><g><use xlink:href="#d30v8l6fbd" opacity="1" fill="#ea51e5" fill-opacity="1"></use></g><g><use xlink:href="#accEj9sKI" opacity="1" fill="#333333" fill-opacity="1"></use></g><g><use xlink:href="#k2QaL6wWwY" opacity="1" fill="#484848" fill-opacity="1"></use></g><g><use xlink:href="#dRmCq9Qth" opacity="1" fill="#484848" fill-opacity="1"></use></g><g><use xlink:href="#hKhvp3G23" opacity="1" fill="#484848" fill-opacity="1"></use></g><g><use xlink:href="#d2B6aMAkao" opacity="1" fill="#c8c8c8" fill-opacity="1"></use></g><g><use xlink:href="#j203WDjqyk" opacity="1" fill="#cecece" fill-opacity="1"></use></g><g><use xlink:href="#c3YY1Y6z4f" opacity="1" fill="#e3e3e3" fill-opacity="1"></use></g><g><use xlink:href="#b1VlDfHDxd" opacity="1" fill="#484848" fill-opacity="1"></use></g><g><use xlink:href="#b6zFVDqV8J" opacity="1" fill="#777777" fill-opacity="1"></use></g><g><use xlink:href="#g7UP4uRi5" opacity="1" fill="#c9c9c9" fill-opacity="1"></use></g></g></g></svg>